<?xml version="1.0" encoding="utf-8"?>
<svg width="360" height="194" viewBox="0 0 360 194" fill="none" xmlns="http://www.w3.org/2000/svg">
  <defs>
    <clipPath id="clip0_2270_2">
      <rect width="359.26" height="193.03" fill="white"/>
    </clipPath>
  </defs>
  <g clip-path="url(#clip0_2270_2)" transform="matrix(1, 0, 0, 1, -14.257183, 0.628132)">
    <path d="M258.96 0L279.62 77.93L359.26 73.73L292.39 117.69L320.95 193.03L258.96 142.27L196.97 193.03L225.52 117.69L158.66 73.73L238.29 77.93L258.96 0Z" fill="#D71723"/>
    <path d="M112.21 43.67C112.219 43.723 112.219 43.7771 112.21 43.83C112.138 43.9874 112.058 44.1409 111.97 44.29C111.97 44.29 111.9 44.36 111.86 44.4V44.19C111.984 44.0602 112.067 43.8968 112.1 43.72L112.24 43.65L112.21 43.67Z" fill="#D1B276"/>
    <path d="M135.2 38.6C135.205 38.6198 135.205 38.6403 135.2 38.66L134.48 39.78C134.48 39.78 134.48 39.7 134.48 39.67C134.48 39.64 134.48 39.58 134.48 39.53C134.521 39.5205 134.557 39.4952 134.579 39.4597C134.601 39.4241 134.609 39.3811 134.6 39.34C134.639 39.3267 134.671 39.3006 134.693 39.2661C134.715 39.2315 134.725 39.1906 134.72 39.15C134.76 39.1384 134.794 39.1127 134.816 39.0777C134.838 39.0427 134.847 39.0009 134.84 38.9601C134.896 38.9303 134.942 38.8855 134.974 38.8307C135.006 38.7759 135.022 38.7133 135.02 38.65L135.11 38.59L135.2 38.53V38.6Z" fill="#D1B276"/>
    <path d="M135.55 38.12C135.55 38.12 135.55 38.18 135.55 38.2L135.31 38.58C135.31 38.58 135.31 38.51 135.31 38.47C135.31 38.43 135.31 38.38 135.31 38.34C135.38 38.34 135.4 38.26 135.43 38.21C135.46 38.16 135.49 38.11 135.55 38.1V38.12Z" fill="#D1B276"/>
    <path d="M135.74 37.76C135.74 37.84 135.74 37.91 135.62 37.94C135.614 37.9004 135.623 37.86 135.645 37.8267C135.667 37.7933 135.701 37.7695 135.74 37.76Z" fill="#D1B276"/>
    <path d="M135.62 37.9399C135.626 37.9795 135.617 38.02 135.595 38.0533C135.573 38.0866 135.539 38.1104 135.5 38.1199C135.494 38.0804 135.503 38.0399 135.525 38.0066C135.547 37.9733 135.581 37.9495 135.62 37.9399Z" fill="#D1B276"/>
    <path d="M156.9 21.78V21.8H156.89L156.9 21.78Z" fill="#D1B276"/>
    <path d="M156.49 53.88C156.42 53.8903 156.35 53.8903 156.28 53.88C156.22 53.88 156.21 53.88 156.17 53.88C156.12 53.9047 156.065 53.9175 156.01 53.9175C155.954 53.9175 155.9 53.9047 155.85 53.88C155.823 53.8675 155.794 53.8611 155.765 53.8611C155.735 53.8611 155.706 53.8675 155.68 53.88H155.6H155.36C155.271 53.8602 155.179 53.8602 155.09 53.88C155.017 53.8905 154.943 53.8905 154.87 53.88C154.87 53.88 154.87 53.88 154.82 53.88C154.77 53.88 154.6 53.95 154.48 53.96C154.36 53.97 154.18 53.96 154.04 54.02C153.72 54.09 153.39 54.12 153.04 54.18C152.12 54.36 151.22 54.6 150.32 54.81L150.15 54.86C150.02 54.9139 149.879 54.9346 149.74 54.92C149.74 54.92 149.74 54.87 149.74 54.86C149.74 54.85 149.8 54.86 149.81 54.8C149.946 54.8049 150.08 54.7739 150.2 54.71C150.132 54.6967 150.062 54.6979 149.995 54.7134C149.928 54.7289 149.865 54.7584 149.81 54.8H149.72C149.59 54.86 149.44 54.85 149.29 54.9C149.14 54.95 148.83 55.06 148.59 55.12C148.35 55.18 148.03 55.31 147.75 55.41C147.47 55.51 147.16 55.64 146.86 55.73C146.56 55.82 146.41 55.89 146.19 55.97C146.082 56.0184 145.967 56.052 145.85 56.07C145.82 56.0699 145.791 56.0812 145.768 56.1016C145.746 56.1219 145.732 56.1499 145.73 56.18H145.53L144.83 56.44C144.27 56.61 143.74 56.84 143.18 57.01L142.88 57.12C142.88 57.12 142.88 57.12 142.88 57.17H142.77C142.77 57.17 142.7 57.17 142.7 57.23C142.52 57.23 142.36 57.31 142.18 57.31C142 57.31 142.1 57.31 142.01 57.4C142.09 57.4102 142.17 57.4102 142.25 57.4C142.4 57.4 142.54 57.3 142.68 57.25H142.79C142.79 57.25 142.86 57.25 142.86 57.18C142.935 57.1999 143.015 57.1999 143.09 57.18L143.6 57.02C144.06 56.84 144.54 56.71 145 56.5H145.14C145.14 56.57 145.14 56.59 145.05 56.61C144.62 56.75 144.2 56.92 143.76 57.06L143.09 57.29L142.21 57.54C141.94 57.61 141.67 57.61 141.41 57.69C141.396 57.6979 141.381 57.7021 141.365 57.7021C141.349 57.7021 141.334 57.6979 141.32 57.69C141.26 57.6 141.18 57.63 141.09 57.64C141 57.65 141.01 57.7 140.93 57.7C140.783 57.6419 140.639 57.5751 140.5 57.5C140.453 57.4712 140.415 57.4316 140.387 57.3846C140.359 57.3376 140.343 57.2846 140.34 57.23V57.28C140.34 57.28 140.24 57.28 140.23 57.28C140.22 57.28 140.03 57.13 139.95 57.03H139.87C139.78 56.9877 139.703 56.9215 139.649 56.8386C139.594 56.7557 139.563 56.6593 139.56 56.56L139.5 56.21C139.462 56.0125 139.479 55.8083 139.55 55.62C139.666 55.2538 139.853 54.9141 140.1 54.62C140.107 54.5195 140.154 54.426 140.23 54.36C140.337 54.2483 140.424 54.12 140.49 53.98H140.56C140.611 53.8263 140.697 53.6862 140.81 53.57C140.829 53.5527 140.851 53.5394 140.875 53.5308C140.899 53.5222 140.924 53.5185 140.95 53.52C140.95 53.57 140.95 53.59 141.06 53.52H140.94C140.962 53.4162 141.01 53.3198 141.08 53.24C141.08 53.16 141.16 53.05 141.26 53.01C141.36 52.97 141.35 52.82 141.43 52.76L141.67 52.56L141.57 52.42L141.66 52.32L141.55 52.21L141.45 52.46C141.38 52.46 141.45 52.32 141.35 52.32C141.25 52.32 141.35 52.25 141.35 52.32H141.4C141.393 52.3979 141.362 52.4716 141.31 52.53C141.25 52.53 141.2 52.53 141.23 52.42C141.26 52.31 141.23 52.31 141.23 52.26L141.29 52.21C141.284 52.2364 141.284 52.2636 141.29 52.29C141.143 52.3342 140.987 52.3342 140.84 52.29C140.75 52.29 140.75 52.29 140.71 52.35L140.66 52.28C140.655 52.3165 140.655 52.3535 140.66 52.39C140.61 52.39 140.6 52.39 140.6 52.3C140.601 52.2702 140.591 52.2409 140.573 52.2173C140.555 52.1936 140.529 52.1769 140.5 52.17C140.5 52.23 140.5 52.31 140.39 52.36C140.364 52.3746 140.345 52.3973 140.334 52.4246C140.323 52.4518 140.321 52.4819 140.33 52.51C140.22 52.59 140.11 52.71 139.94 52.63C139.77 52.55 139.88 52.63 139.84 52.63C139.772 52.6562 139.697 52.6562 139.63 52.63C139.517 52.7108 139.379 52.7497 139.24 52.74C139.068 52.8151 138.886 52.8656 138.7 52.89C138.625 52.9152 138.544 52.9152 138.47 52.89C138.42 52.89 138.42 52.89 138.4 52.89C138.377 52.8984 138.352 52.8984 138.33 52.89L138.1 52.94C137.939 52.9477 137.781 52.9922 137.64 53.07C137.38 53.07 137.15 53.22 136.88 53.2C136.844 53.1918 136.806 53.1918 136.77 53.2C136.616 53.2666 136.455 53.3136 136.29 53.34C136.056 53.3813 135.826 53.4381 135.6 53.51C135.41 53.57 135.21 53.6 135.02 53.64C134.98 53.6352 134.94 53.6352 134.9 53.64C134.767 53.7119 134.62 53.7529 134.47 53.76C134.05 53.92 133.59 54 133.16 54.14C132.89 54.22 132.6 54.26 132.32 54.34L131.88 54.48C131.62 54.57 131.36 54.62 131.11 54.7C130.848 54.7531 130.592 54.837 130.35 54.95L130.21 55C129.66 55.17 129.11 55.35 128.55 55.49L128.21 55.6C128.13 55.6341 128.046 55.6576 127.96 55.67C127.853 55.6927 127.75 55.7262 127.65 55.77C127.503 55.8323 127.353 55.8857 127.2 55.93C127.07 55.9454 126.944 55.9862 126.83 56.05C126.632 56.0736 126.441 56.1384 126.27 56.24C126.059 56.2894 125.854 56.3632 125.66 56.46C125.2 56.6 124.74 56.76 124.28 56.92L123.46 57.21L122.59 57.51L122.23 57.64C121.87 57.77 121.52 57.9 121.16 58.01C120.99 58.06 120.84 58.15 120.67 58.21C120.2 58.36 119.76 58.56 119.3 58.72C119.189 58.766 119.075 58.806 118.96 58.84C118.74 58.96 118.5 59.02 118.27 59.12C117.62 59.4 116.97 59.66 116.27 59.92C116.09 59.98 115.92 60.06 115.74 60.14C115.514 60.2375 115.28 60.3145 115.04 60.37C114.92 60.37 114.84 60.49 114.72 60.52C114.61 60.5352 114.506 60.5802 114.42 60.65C114.352 60.7062 114.268 60.7379 114.18 60.74C114.144 60.7302 114.106 60.7302 114.07 60.74C113.878 60.8678 113.669 60.9687 113.45 61.04C113.17 61.15 112.91 61.28 112.63 61.4C112.35 61.52 111.83 61.75 111.42 61.91L110.82 62.18L109.22 62.91C108.87 63.08 108.52 63.23 108.16 63.39L107.54 63.69L106.43 64.2C106.27 64.2667 106.11 64.3467 105.95 64.44L105.34 64.75C105.071 64.8602 104.816 65.0011 104.58 65.17L104.35 65.31L104.27 65.22H104.16C104.09 65.15 104.16 65.09 104.16 65.02C104.12 64.9908 104.076 64.9673 104.03 64.95C104.03 64.95 103.93 64.95 103.9 64.95C103.87 64.95 103.85 64.9 103.79 64.9C103.725 64.9066 103.659 64.8917 103.603 64.8573C103.547 64.823 103.504 64.7713 103.48 64.71C103.334 64.4586 103.265 64.1702 103.28 63.88C103.309 63.6616 103.38 63.451 103.49 63.26C103.809 62.7178 104.218 62.2341 104.7 61.83C105.04 61.54 105.39 61.25 105.7 60.99C106.01 60.73 106.51 60.41 106.93 60.15C107.16 60.01 107.38 59.85 107.61 59.72L108.28 59.32C108.88 58.97 109.49 58.62 110.11 58.32L111.25 57.73C112.07 57.33 112.89 56.95 113.72 56.58L113.91 56.51C114.217 56.393 114.517 56.2595 114.81 56.11C115.27 55.94 115.72 55.75 116.17 55.57L118 54.85C118.93 54.49 119.87 54.16 120.81 53.85L122.54 53.28C123.19 53.08 123.83 52.88 124.48 52.71L124.94 52.57C125.4 52.43 125.87 52.29 126.34 52.17L127.81 51.78C128.36 51.64 128.9 51.49 129.46 51.36C130.02 51.23 130.3 51.15 130.74 51.08C131.01 51.08 131.28 50.96 131.55 50.9L132.63 50.68L133.68 50.47L134.56 50.31L135.47 50.15C135.64 50.15 135.8 50.15 135.97 50.08C136.14 50.01 136.37 50.08 136.56 50C136.75 49.92 137.01 50 137.24 49.91C137.47 49.82 137.77 49.86 138.04 49.83H138.69L139.26 49.77H140.51C140.6 49.77 140.57 49.88 140.61 49.93C140.65 49.98 140.66 49.93 140.67 49.88C140.68 49.83 140.73 49.76 140.8 49.79C140.888 49.8143 140.981 49.8143 141.07 49.79C141.156 49.7747 141.244 49.7747 141.33 49.79C141.42 49.79 141.49 49.79 141.56 49.79L141.88 49.86L142.31 49.97C142.374 49.9919 142.434 50.0222 142.49 50.06C142.49 50.18 142.49 50.19 142.49 50.23C142.49 50.27 142.56 50.16 142.6 50.15C142.64 50.14 142.67 50.15 142.71 50.15C142.75 50.15 142.78 50.15 142.79 50.23C142.8 50.31 142.96 50.36 143.01 50.47C143.034 50.5227 143.068 50.5702 143.11 50.61C143.352 50.8467 143.534 51.1383 143.64 51.46C143.735 51.6802 143.799 51.9124 143.83 52.15C143.84 52.1961 143.84 52.2439 143.83 52.29C143.83 52.37 143.72 52.43 143.77 52.51C143.82 52.59 143.77 52.63 143.77 52.7C143.77 52.8099 143.731 52.9164 143.66 53C143.556 53.1798 143.428 53.3447 143.28 53.49H143.22C143.14 53.49 143.13 53.49 143.15 53.49C143.165 53.5159 143.173 53.5452 143.173 53.575C143.173 53.6049 143.165 53.6342 143.15 53.66C143.136 53.6869 143.114 53.709 143.087 53.7233C143.061 53.7376 143.03 53.7434 143 53.74V53.68C143 53.68 143.06 53.68 143.06 53.62C143.06 53.56 143.12 53.62 143.06 53.62C143.06 53.62 143 53.62 143 53.68L142.93 53.74H142.85C142.771 53.8265 142.701 53.9203 142.64 54.02C142.606 54.0898 142.557 54.1512 142.497 54.1996C142.436 54.2481 142.365 54.2824 142.29 54.3V54.51L142.22 54.58C142.17 54.58 142.12 54.58 142.1 54.63C142.08 54.68 142.05 54.76 142.03 54.82C142.03 54.82 141.93 54.82 141.92 54.82C141.91 54.82 141.79 54.93 141.7 54.98C141.61 55.03 141.7 55.08 141.64 55.13C141.644 55.1766 141.644 55.2235 141.64 55.27C141.595 55.2883 141.557 55.3186 141.529 55.3574C141.501 55.3963 141.484 55.4422 141.48 55.49C141.748 55.4799 142.012 55.4223 142.26 55.32C142.387 55.2625 142.522 55.2254 142.66 55.21C142.66 55.13 142.78 55.14 142.84 55.12C143.49 54.88 144.13 54.61 144.78 54.37C145.43 54.13 145.78 53.98 146.32 53.8L147.72 53.31C147.825 53.2741 147.932 53.2441 148.04 53.22C148.107 53.1807 148.177 53.1473 148.25 53.12C148.54 53.06 148.81 52.93 149.1 52.86L149.3 52.81C149.399 52.8033 149.495 52.7724 149.58 52.72C149.706 52.6715 149.837 52.6347 149.97 52.61C150.402 52.4622 150.843 52.342 151.29 52.25L152.29 52.03L153.11 51.87L153.55 51.8L154.27 51.73C154.655 51.6815 155.042 51.6581 155.43 51.66C155.596 51.6402 155.764 51.6402 155.93 51.66C156.06 51.66 156.18 51.71 156.32 51.66C156.436 51.6505 156.553 51.6505 156.67 51.66C156.8 51.66 156.93 51.66 157.06 51.66C157.424 51.7049 157.785 51.775 158.14 51.87C158.571 51.994 158.986 52.165 159.38 52.38C159.784 52.5998 160.154 52.8759 160.48 53.2C160.912 53.6407 161.317 54.1083 161.69 54.6C161.79 54.81 161.97 54.99 161.95 55.25C161.95 55.25 161.95 55.31 161.95 55.33C161.929 55.3702 161.901 55.4059 161.867 55.4351C161.833 55.4643 161.793 55.4863 161.75 55.5C161.7 55.5331 161.639 55.5464 161.58 55.5371C161.521 55.5279 161.467 55.4968 161.43 55.45L160.62 54.71C160.277 54.4038 159.885 54.157 159.46 53.98C159.136 53.846 158.801 53.7389 158.46 53.66C158.256 53.6113 158.049 53.5779 157.84 53.56C157.63 53.56 157.41 53.49 157.19 53.49C157.19 53.49 157.19 53.49 157.1 53.41L157.04 53.48H156.85C156.85 53.48 156.77 53.48 156.74 53.48C156.71 53.48 156.57 53.48 156.49 53.48V53.88ZM104.49 65.02C104.506 65.02 104.521 65.0137 104.532 65.0024C104.544 64.9912 104.55 64.9759 104.55 64.96C104.55 64.96 104.61 64.96 104.61 64.9C104.649 64.9062 104.69 64.8972 104.723 64.875C104.757 64.8528 104.78 64.8189 104.79 64.78C104.829 64.7822 104.867 64.7717 104.9 64.7501C104.932 64.7284 104.957 64.6968 104.97 64.66C104.978 64.6619 104.987 64.6617 104.995 64.6594C105.003 64.657 105.011 64.6527 105.017 64.6467C105.023 64.6407 105.027 64.6332 105.029 64.6251C105.032 64.6169 105.032 64.6083 105.03 64.6C105.03 64.6 105.13 64.6 105.15 64.54C105.17 64.48 105.24 64.54 105.26 64.48H105.31C105.31 64.48 105.21 64.48 105.19 64.54C105.17 64.6 105.09 64.54 105.07 64.6C105.054 64.6 105.039 64.6063 105.027 64.6176C105.016 64.6288 105.01 64.6441 105.01 64.66C104.83 64.7801 104.83 64.7801 104.65 64.9001C104.642 64.8981 104.633 64.8983 104.625 64.9006C104.617 64.903 104.609 64.9074 104.603 64.9134C104.597 64.9194 104.593 64.9268 104.591 64.935C104.588 64.9431 104.588 64.9518 104.59 64.96C104.582 64.9581 104.573 64.9583 104.565 64.9606C104.557 64.963 104.549 64.9674 104.543 64.9734C104.537 64.9794 104.533 64.9868 104.531 64.995C104.528 65.0031 104.528 65.0118 104.53 65.02C104.47 65.02 104.53 65.02 104.53 65.02H104.49ZM105.49 64.36C105.49 64.36 105.54 64.36 105.55 64.3C105.56 64.24 105.65 64.3 105.67 64.24C105.69 64.18 105.77 64.24 105.78 64.18C105.79 64.12 105.84 64.18 105.78 64.18C105.73 64.18 105.68 64.18 105.66 64.24C105.64 64.3 105.56 64.24 105.54 64.3C105.52 64.36 105.48 64.3 105.48 64.36H105.49ZM105.49 63.34C105.49 63.34 105.54 63.34 105.54 63.28C105.54 63.22 105.64 63.28 105.66 63.28C105.66 63.28 105.56 63.28 105.54 63.34L105.48 63.4L105.49 63.34ZM104.65 63.16C104.659 63.1653 104.669 63.1681 104.68 63.1681C104.69 63.1681 104.701 63.1653 104.71 63.16C104.718 63.1619 104.727 63.1617 104.735 63.1594C104.743 63.157 104.751 63.1527 104.757 63.1467C104.763 63.1407 104.767 63.1332 104.769 63.1251C104.772 63.1169 104.772 63.1083 104.77 63.1C104.794 63.1013 104.818 63.0975 104.84 63.0889C104.863 63.0803 104.883 63.0671 104.9 63.05L105.83 62.4C106.05 62.25 106.29 62.12 106.52 61.97C107.02 61.65 107.52 61.36 108.06 61.06L108.77 60.68L109.49 60.26C109.78 60.09 110.08 59.93 110.38 59.78C110.927 59.4867 111.477 59.2067 112.03 58.94L112.87 58.54L113.74 58.14L114.39 57.85C114.39 57.85 114.49 57.85 114.53 57.85L114.68 57.75C114.715 57.7193 114.756 57.6955 114.8 57.68C114.86 57.68 114.92 57.68 114.94 57.57C114.96 57.46 114.83 57.57 114.78 57.57C114.618 57.5648 114.461 57.6221 114.34 57.73C114.307 57.7558 114.27 57.7761 114.23 57.79C114.08 57.84 113.93 57.91 113.77 57.98C113.61 58.05 113.39 58.13 113.21 58.24C113.03 58.35 113.11 58.31 113.04 58.24C113.04 58.24 112.93 58.33 112.87 58.36C112.694 58.4196 112.526 58.5001 112.37 58.6C112.08 58.72 111.83 58.88 111.54 59C111.25 59.12 111.16 59.18 110.98 59.27L110.42 59.55L109.85 59.83C109.668 59.9333 109.481 60.0267 109.29 60.11C109.108 60.21 108.921 60.3001 108.73 60.38C108.41 60.55 108.11 60.76 107.73 60.91C107.536 61.0675 107.325 61.2017 107.1 61.31C106.423 61.7116 105.775 62.1594 105.16 62.65C105.006 62.7574 104.873 62.8931 104.77 63.05C104.762 63.0481 104.753 63.0483 104.745 63.0507C104.737 63.053 104.729 63.0574 104.723 63.0634C104.717 63.0694 104.713 63.0768 104.711 63.085C104.708 63.0931 104.708 63.1017 104.71 63.11C104.702 63.1081 104.693 63.1083 104.685 63.1107C104.677 63.113 104.669 63.1173 104.663 63.1234C104.657 63.1294 104.653 63.1368 104.651 63.145C104.648 63.1531 104.648 63.1617 104.65 63.17C104.59 63.17 104.65 63.17 104.65 63.17V63.16ZM105.55 63.41C105.5 63.41 105.45 63.41 105.43 63.47C105.377 63.4741 105.326 63.4933 105.284 63.5251C105.241 63.557 105.209 63.6003 105.19 63.65H105.1C104.855 63.8134 104.624 63.9975 104.41 64.2L104.35 64.3C104.35 64.3 104.43 64.3 104.45 64.3L105.13 63.77L105.19 63.68C105.243 63.6758 105.294 63.6567 105.336 63.6248C105.379 63.593 105.411 63.5497 105.43 63.5C105.48 63.5 105.53 63.5 105.55 63.44C105.567 63.4376 105.582 63.4292 105.593 63.4163C105.604 63.4034 105.61 63.387 105.61 63.37C105.61 63.37 105.7 63.37 105.72 63.37C105.74 63.37 105.78 63.37 105.72 63.37C105.72 63.37 105.62 63.37 105.6 63.43C105.58 63.49 105.55 63.37 105.55 63.41ZM108.72 63.11C108.77 63.11 108.83 63.11 108.84 63.05C108.85 62.99 108.95 63.05 108.96 62.99C108.97 62.93 109.07 62.99 109.08 62.93C109.236 62.9187 109.384 62.8553 109.5 62.75C109.55 62.75 109.61 62.75 109.62 62.69C109.63 62.63 109.73 62.69 109.74 62.63C109.75 62.57 109.85 62.63 109.86 62.57C109.87 62.51 109.97 62.57 109.98 62.51C109.99 62.45 110.12 62.51 110.16 62.45C110.2 62.39 110.26 62.45 110.28 62.39H110.33C110.28 62.39 110.22 62.39 110.21 62.45C110.2 62.51 110.06 62.45 110.03 62.51C110 62.57 109.93 62.51 109.91 62.57C109.89 62.63 109.8 62.57 109.79 62.63C109.78 62.69 109.68 62.63 109.67 62.69C109.66 62.75 109.56 62.69 109.55 62.75C109.392 62.7523 109.241 62.8169 109.13 62.93C109.13 62.93 109.03 62.93 109.01 62.99C108.99 63.05 108.9 62.99 108.89 63.05C108.88 63.11 108.78 63.05 108.77 63.11C108.76 63.17 108.66 63.11 108.65 63.17C108.593 63.1644 108.536 63.1644 108.48 63.17L107.78 63.51C107.78 63.51 107.58 63.51 107.54 63.63C107.492 63.6238 107.444 63.6319 107.402 63.6533C107.359 63.6747 107.323 63.7084 107.3 63.75C107.235 63.7299 107.165 63.7299 107.1 63.75C106.4 64.09 105.72 64.46 105.03 64.82C105.001 64.8454 104.977 64.8759 104.96 64.91C104.777 64.9441 104.611 65.0393 104.49 65.18H104.54L104.92 64.95C104.92 64.95 104.92 64.95 104.97 64.89C105.029 64.8894 105.085 64.8682 105.13 64.83C105.55 64.62 105.96 64.39 106.38 64.19L107.22 63.76C107.22 63.76 107.3 63.76 107.3 63.68C107.3 63.6 107.5 63.68 107.55 63.57C107.598 63.5812 107.648 63.5753 107.692 63.5533C107.735 63.5314 107.77 63.4949 107.79 63.45C107.846 63.4548 107.903 63.4548 107.96 63.45L108.65 63.1C108.65 63.1 108.65 63.1 108.65 63.05C108.65 63 108.74 63.17 108.75 63.11H108.72ZM114.07 60.72H113.95C114.01 60.72 114.04 60.72 114.06 60.72C114.08 60.72 114.12 60.72 114.06 60.72H114.07ZM143.44 56.27H143.55C143.49 56.27 143.46 56.27 143.45 56.27C143.39 56.27 143.44 56.27 143.45 56.27H143.44ZM130.97 54.72H131.03H130.92H130.97ZM143.2 53.72L143.26 53.67V53.62C143.256 53.6465 143.256 53.6735 143.26 53.7C143.19 53.7 143.26 53.7 143.26 53.7L143.2 53.72ZM143.45 53.36L143.4 53.42C143.404 53.3935 143.404 53.3665 143.4 53.34L143.45 53.36ZM138.65 52.88C138.65 52.83 138.65 52.81 138.55 52.88H138.65ZM146.8 55.64C146.8 55.64 146.69 55.64 146.65 55.64C146.61 55.64 146.77 55.64 146.8 55.64ZM114.36 60.64C114.42 60.64 114.5 60.64 114.54 60.58C114.58 60.52 114.6 60.58 114.6 60.52H114.69C114.69 60.52 114.77 60.52 114.78 60.46H114.86L114.8 60.52C114.74 60.52 114.66 60.52 114.63 60.58C114.622 60.5781 114.613 60.5783 114.605 60.5807C114.597 60.583 114.589 60.5874 114.583 60.5934C114.577 60.5994 114.573 60.6068 114.571 60.615C114.568 60.6231 114.568 60.6317 114.57 60.64H114.46C114.46 60.64 114.39 60.64 114.39 60.7H114.2C114.3 60.66 114.35 60.67 114.39 60.59L114.36 60.64ZM140.98 53.93L141.1 53.84C141 53.84 141 53.84 140.99 53.9L140.98 53.93ZM140.98 51.93V52C140.845 51.9698 140.705 51.9698 140.57 52V52.16H140.55C140.55 52.11 140.55 52.04 140.55 51.99L140.36 52.04H140.11C140.11 52.04 140.17 52.13 140.19 52.12C140.287 52.1149 140.383 52.1356 140.47 52.18C140.53 52.18 140.56 52.18 140.6 52.18C140.66 52.18 140.73 52.18 140.76 52.18C140.79 52.18 140.82 52.18 140.88 52.18C140.94 52.18 140.98 52.18 141.05 52.23V52.04V51.99V51.88C140.96 51.75 140.95 51.82 141.02 51.82L140.98 51.93ZM151.55 53.1C151.477 53.086 151.403 53.086 151.33 53.1C151.39 53.1 151.47 53.1 151.5 53.05H151.62C151.55 53.04 151.55 53.05 151.55 53.1ZM141.71 53.28H141.76C141.754 53.3064 141.754 53.3337 141.76 53.36H141.81L141.71 53.28ZM113.71 60.89H113.85C113.85 60.89 113.85 60.89 113.85 60.82C113.85 60.75 113.79 60.82 113.77 60.82L113.69 60.92L113.71 60.89ZM148.71 54.96H148.89C148.895 54.9102 148.895 54.8599 148.89 54.81C148.89 54.81 148.82 54.75 148.8 54.81L148.72 54.96H148.52C148.52 54.96 148.52 54.96 148.52 55.03C148.552 55.0306 148.583 55.0248 148.612 55.0127C148.641 55.0007 148.668 54.9828 148.69 54.96H148.71ZM144.87 56.34C144.703 56.35 144.542 56.4016 144.4 56.49C144.28 56.44 144.28 56.44 144.22 56.55C144.16 56.66 144.09 56.55 144.04 56.55C143.834 56.6136 143.636 56.7008 143.45 56.81C143.484 56.8324 143.524 56.8443 143.565 56.8443C143.606 56.8443 143.646 56.8324 143.68 56.81C143.827 56.72 143.985 56.6495 144.15 56.6C144.15 56.6 144.15 56.6 144.21 56.54C144.27 56.48 144.36 56.54 144.39 56.48C144.558 56.4764 144.721 56.4243 144.86 56.33H144.98H144.92L144.87 56.34ZM148.05 55.2H147.78C147.751 55.1996 147.723 55.2095 147.701 55.2278C147.679 55.2462 147.665 55.2718 147.66 55.3C147.75 55.36 147.86 55.3 147.95 55.3C147.973 55.3064 147.997 55.3064 148.02 55.3C148.024 55.2601 148.024 55.2199 148.02 55.18H148.19L148.42 55.09H148.17C148.139 55.0946 148.11 55.1072 148.085 55.1265C148.061 55.1458 148.042 55.1711 148.03 55.2H148.05ZM141.39 56.39C141.46 56.39 141.54 56.45 141.59 56.39C141.64 56.33 141.94 56.31 142.11 56.27C142.28 56.23 142.39 56.17 142.53 56.13L143.53 55.77C143.593 55.7409 143.661 55.7207 143.73 55.71C143.81 55.71 143.87 55.63 143.96 55.71C144.009 55.6648 144.063 55.6245 144.12 55.59C144.12 55.59 144.17 55.59 144.2 55.59L144.76 55.38L146.4 54.77L146.6 54.7C146.818 54.6036 147.042 54.5201 147.27 54.45L149.33 53.76L149.84 53.61L150.69 53.34C150.659 53.3224 150.625 53.3132 150.59 53.3132C150.555 53.3132 150.52 53.3224 150.49 53.34C150.12 53.45 149.75 53.53 149.37 53.64C149.157 53.7114 148.934 53.7485 148.71 53.75C148.593 53.8771 148.432 53.9556 148.26 53.97C148.161 53.986 148.063 54.0129 147.97 54.05C147.882 54.0614 147.798 54.0885 147.72 54.13C147.63 54.1668 147.536 54.1903 147.44 54.2C147.34 54.2 147.27 54.31 147.18 54.33C147.033 54.3588 146.892 54.4094 146.76 54.48C146.561 54.5385 146.367 54.612 146.18 54.7C146.074 54.7136 145.972 54.7475 145.88 54.8L145.57 54.93L145.38 55L145.15 55.08C145.09 55.08 145.02 55.17 144.96 55.16C144.9 55.15 144.83 55.21 144.77 55.23C144.405 55.3877 144.027 55.5115 143.64 55.6H143.56C143.56 55.6 143.49 55.66 143.46 55.66C143.291 55.6733 143.127 55.7246 142.98 55.81L142.56 55.95C142.56 55.95 142.47 56.05 142.41 56.02C142.35 55.99 142.3 56.08 142.24 56.09L141.39 56.35C141.39 56.35 141.39 56.35 141.39 56.4C141.39 56.45 141.28 56.4 141.22 56.46C141.16 56.52 141.34 56.48 141.37 56.39H141.39ZM149.01 54.89H149.12C149.235 54.8384 149.356 54.8014 149.48 54.78H149.4C149.33 54.78 149.24 54.78 149.2 54.71C149.17 54.74 149.06 54.82 148.99 54.89H149.01ZM141.69 51.89L141.54 51.69H141.49C141.486 51.7064 141.486 51.7236 141.49 51.74C141.51 51.7962 141.537 51.8498 141.57 51.9C141.587 51.9241 141.612 51.9418 141.64 51.95H141.69C141.69 51.95 141.66 51.92 141.67 51.89H141.69ZM126.69 56.08C126.69 56.01 126.85 56.08 126.86 55.93L126.6 55.99L126.69 56.08ZM147.29 55.41V55.46C147.42 55.46 147.5 55.46 147.5 55.37C147.42 55.37 147.37 55.37 147.31 55.37C147.25 55.37 147.33 55.4 147.32 55.41H147.29ZM141.1 51.92C141.147 51.9522 141.197 51.979 141.25 52C141.25 52 141.25 52 141.33 52C141.33 52 141.33 52 141.27 52C141.228 51.9662 141.18 51.9392 141.13 51.92H141.1ZM139.5 52.58C139.5 52.58 139.5 52.64 139.5 52.65C139.512 52.657 139.526 52.6607 139.54 52.6607C139.554 52.6607 139.568 52.657 139.58 52.65C139.58 52.65 139.58 52.65 139.52 52.65L139.5 52.58ZM130.22 52.35C130.224 52.3613 130.231 52.3717 130.239 52.3804C130.248 52.3891 130.258 52.396 130.269 52.4006C130.28 52.4053 130.292 52.4076 130.305 52.4075C130.317 52.4074 130.329 52.4049 130.34 52.4C130.34 52.4 130.29 52.35 130.25 52.35H130.22ZM142.81 57.04C142.97 57.04 142.97 57.04 142.98 56.91C142.96 56.99 142.87 56.96 142.84 57.04H142.81ZM140.75 50.82L140.8 50.76H140.74L140.75 50.82ZM125.16 53.82C125.151 53.8112 125.141 53.8043 125.13 53.7995C125.119 53.7947 125.107 53.7923 125.095 53.7923C125.083 53.7923 125.071 53.7947 125.06 53.7995C125.048 53.8043 125.038 53.8112 125.03 53.82C125.038 53.8288 125.048 53.8357 125.06 53.8405C125.071 53.8453 125.083 53.8477 125.095 53.8477C125.107 53.8477 125.119 53.8453 125.13 53.8405C125.141 53.8357 125.151 53.8288 125.16 53.82ZM141.81 50.72C141.822 50.7042 141.829 50.6849 141.829 50.665C141.829 50.6451 141.822 50.6258 141.81 50.61C141.808 50.6366 141.808 50.6634 141.81 50.69V50.72ZM128.09 55.59H127.98C127.997 55.5997 128.016 55.6047 128.035 55.6047C128.054 55.6047 128.073 55.5997 128.09 55.59ZM150.94 53.29C150.94 53.24 150.88 53.29 150.84 53.29H150.94ZM143.3 56.97V56.91L143.24 56.97H143.3ZM141.47 53.41L141.53 53.34C141.53 53.34 141.47 53.34 141.48 53.34L141.47 53.41ZM141.88 51.06C141.88 51.06 141.88 51.06 141.88 51.11V51.05V51.06ZM141.29 51.66C141.291 51.6767 141.291 51.6934 141.29 51.71C141.292 51.6834 141.292 51.6566 141.29 51.63V51.66ZM139.57 52.24V52.19C139.565 52.2063 139.565 52.2237 139.57 52.24ZM130.79 52.31H130.74H130.81H130.79ZM142.46 53.29C142.46 53.29 142.46 53.29 142.46 53.34C142.46 53.39 142.46 53.34 142.46 53.29C142.46 53.24 142.43 53.32 142.43 53.3L142.46 53.29ZM131.89 54.4H131.83H131.88H131.89ZM150.48 54.72H150.43H150.5H150.48ZM145.81 55.99H145.75H145.83H145.81ZM145.13 56.21H145.08H145.15H145.13ZM141.8 57.23V57.18C141.8 57.18 141.8 57.18 141.8 57.23ZM141.93 57.57H141.98H141.92H141.93ZM142.47 57.21C142.47 57.21 142.47 57.21 142.47 57.16V57.21ZM130.8 54.03C130.8 54.03 130.74 54.1 130.75 54.09L130.8 54.03Z" fill="#D1B276"/>
    <path d="M145.81 56.2799C145.859 56.2899 145.91 56.2899 145.96 56.2799L147.1 55.86L148.42 55.4099L148.73 55.33H148.79C148.763 55.359 148.728 55.3798 148.69 55.39C148.38 55.47 148.1 55.62 147.79 55.7C147.543 55.7672 147.303 55.8541 147.07 55.96L146.87 56.0299C146.669 56.0865 146.472 56.1567 146.28 56.24L145.48 56.55C145.39 56.5599 145.3 56.5599 145.21 56.55C145.21 56.55 145.21 56.5 145.27 56.49L145.6 56.3699C145.68 56.3699 145.77 56.37 145.82 56.24L145.81 56.2799Z" fill="#D1B276"/>
    <path d="M149.77 55.02C149.77 55.09 149.68 55.1 149.63 55.11C149.41 55.11 149.2 55.25 148.99 55.31C148.99 55.31 148.91 55.31 148.88 55.31C148.85 55.31 148.94 55.25 148.98 55.25C149.02 55.25 149.31 55.13 149.49 55.11C149.575 55.0628 149.674 55.0452 149.77 55.06V55.02Z" fill="#D1B276"/>
    <path d="M140.55 52.4399L140.77 52.52C140.66 52.66 140.48 52.5799 140.34 52.6499C140.2 52.7199 140.34 52.5599 140.34 52.5299C140.34 52.4999 140.49 52.5299 140.52 52.4399H140.55Z" fill="#D1B276"/>
    <path d="M142.93 54.12C142.936 54.1463 142.936 54.1736 142.93 54.2H142.88C142.83 54.2 142.88 54.2 142.88 54.14V54.09H142.93V54.12Z" fill="#D1B276"/>
    <path d="M142.47 54.6901L142.49 54.6801V54.7001L142.47 54.6901Z" fill="#D1B276"/>
    <path d="M142.27 54.9C142.27 54.9 142.27 54.95 142.21 54.96V54.89H142.26L142.27 54.9Z" fill="#D1B276"/>
    <path d="M48.7702 68.37C48.8258 68.4337 48.8672 68.5087 48.8913 68.5898C48.9155 68.6709 48.9219 68.7562 48.9102 68.84C48.8789 69.9715 48.5771 71.079 48.0302 72.07C47.5341 72.9462 46.8034 73.6665 45.9202 74.15C44.9976 74.641 43.9651 74.8888 42.9202 74.87C41.8031 74.8808 40.7052 74.5795 39.7502 74C38.8013 73.4316 38.0212 72.6203 37.4902 71.65C36.9519 70.6603 36.6699 69.5516 36.6699 68.425C36.6699 67.2984 36.9519 66.1897 37.4902 65.2C38.0214 64.2325 38.8017 63.4246 39.7502 62.86C40.7052 62.2806 41.8031 61.9793 42.9202 61.99C43.8367 61.9844 44.7426 62.1861 45.5702 62.58C46.3836 62.9723 47.0981 63.5431 47.6602 64.25C47.6973 64.2815 47.726 64.3218 47.7434 64.3672C47.7609 64.4127 47.7667 64.4618 47.7602 64.51C47.7505 64.5611 47.7293 64.6093 47.6981 64.6509C47.6669 64.6926 47.6265 64.7264 47.5802 64.75C47.5419 64.7784 47.4981 64.7984 47.4516 64.8087C47.405 64.8191 47.3569 64.8195 47.3102 64.81C47.2169 64.7912 47.1325 64.742 47.0702 64.67C46.5698 64.0599 45.9462 63.5623 45.2402 63.21C44.5308 62.8757 43.7543 62.708 42.9702 62.72C41.9887 62.7068 41.0228 62.9665 40.1802 63.47C39.3389 63.9624 38.6475 64.6745 38.1802 65.53C37.7142 66.4149 37.4707 67.3999 37.4707 68.4C37.4707 69.4001 37.7142 70.3851 38.1802 71.27C38.655 72.1043 39.3459 72.7952 40.1802 73.27C41.0201 73.781 41.9872 74.0445 42.9702 74.03C43.9256 74.0489 44.8685 73.8106 45.7002 73.34C46.4818 72.889 47.1172 72.2224 47.5302 71.42C47.9753 70.5441 48.1985 69.5723 48.1802 68.59V68.12H48.3302C48.4165 68.1301 48.4999 68.1575 48.5755 68.2004C48.6511 68.2434 48.7173 68.301 48.7702 68.37ZM48.2602 68.96H43.4502C43.3489 68.9657 43.2492 68.9336 43.1702 68.87C43.1048 68.792 43.0725 68.6915 43.0802 68.59C43.0714 68.5395 43.0749 68.4876 43.0904 68.4387C43.1059 68.3898 43.1329 68.3453 43.1692 68.309C43.2055 68.2728 43.2499 68.2457 43.2988 68.2302C43.3477 68.2147 43.3996 68.2112 43.4502 68.22H48.2602V68.96Z" fill="#D1B276"/>
    <path d="M52.1602 74.57C52.1231 74.6088 52.0778 74.6388 52.0277 74.6578C51.9775 74.6768 51.9237 74.6844 51.8702 74.68C51.8184 74.6829 51.7665 74.6746 51.7182 74.6556C51.6698 74.6367 51.6262 74.6074 51.5902 74.57C51.5545 74.5348 51.5264 74.4927 51.5075 74.4463C51.4886 74.3999 51.4793 74.3501 51.4802 74.3V62.82C51.473 62.7348 51.4836 62.6492 51.5111 62.5683C51.5387 62.4874 51.5826 62.4131 51.6402 62.35C51.7742 62.2378 51.9457 62.1806 52.1202 62.19H52.2902V74.32C52.2778 74.4161 52.2317 74.5046 52.1602 74.57ZM52.1602 68.44H55.3702C55.8915 68.4449 56.405 68.3139 56.8602 68.06C57.2997 67.8243 57.6715 67.4801 57.9402 67.06C58.1953 66.6485 58.3304 66.1741 58.3304 65.69C58.3304 65.2059 58.1953 64.7314 57.9402 64.32C57.6688 63.9021 57.2977 63.5585 56.8602 63.32C56.405 63.066 55.8915 62.935 55.3702 62.94H52.1602V62.18H55.3702C56.0257 62.1771 56.6704 62.346 57.2402 62.67C57.7977 62.9865 58.271 63.4323 58.6202 63.97C58.959 64.4778 59.1398 65.0745 59.1398 65.685C59.1398 66.2954 58.959 66.8922 58.6202 67.4C58.2723 67.9413 57.7989 68.3907 57.2402 68.71C56.673 69.0415 56.0271 69.2142 55.3702 69.21H52.1602V68.44ZM56.0802 68.76L59.1902 74.18C59.2305 74.2296 59.258 74.2885 59.2702 74.3512C59.2824 74.414 59.279 74.4788 59.2602 74.54C59.2602 74.64 59.1102 74.68 58.9502 74.68H58.8702C58.7674 74.6858 58.6655 74.6577 58.5802 74.6C58.4877 74.5385 58.4148 74.4517 58.3702 74.35L55.2102 68.76H56.0802Z" fill="#D1B276"/>
    <path d="M62.0102 74.52C61.902 74.3922 61.8481 74.227 61.8602 74.0599V62.82C61.8476 62.6498 61.9013 62.4813 62.0102 62.35C62.1442 62.2378 62.3157 62.1806 62.4902 62.1899H62.6602V74.7H62.4902C62.4022 74.7041 62.3142 74.6902 62.2317 74.6593C62.1492 74.6283 62.0738 74.5809 62.0102 74.52ZM68.9302 62.26C68.9623 62.2985 68.986 62.3433 68.9998 62.3915C69.0136 62.4397 69.0171 62.4903 69.0102 62.54C69.016 62.5896 69.0118 62.6399 68.9981 62.6879C68.9844 62.736 68.9613 62.7808 68.9302 62.82C68.894 62.853 68.8513 62.8781 68.8048 62.8936C68.7583 62.9091 68.709 62.9147 68.6602 62.91H62.5502V62.1499H68.6702C68.7188 62.1492 68.767 62.1587 68.8118 62.1776C68.8566 62.1965 68.8969 62.2246 68.9302 62.26ZM68.3802 68.13C68.4379 68.2077 68.4663 68.3033 68.4602 68.3999C68.4647 68.4933 68.4364 68.5853 68.3802 68.66C68.3455 68.6922 68.3045 68.7169 68.2597 68.7324C68.2149 68.7479 68.1674 68.7539 68.1202 68.7499H62.5502V68.01H68.1302C68.2257 68.017 68.315 68.0599 68.3802 68.13ZM68.9302 74.01C68.9621 74.0506 68.9856 74.0971 68.9993 74.1469C69.013 74.1967 69.0168 74.2487 69.0102 74.3C69.016 74.3496 69.0118 74.3999 68.9981 74.4479C68.9844 74.496 68.9613 74.5408 68.9302 74.58C68.894 74.613 68.8513 74.6381 68.8048 74.6536C68.7583 74.6691 68.709 74.6747 68.6602 74.67H62.5502V73.92H68.6702C68.7174 73.9166 68.7647 73.9229 68.8094 73.9383C68.8541 73.9538 68.8952 73.9782 68.9302 74.01Z" fill="#D1B276"/>
    <path d="M80.9399 74.56C80.9106 74.6008 80.8713 74.6333 80.8257 74.6543C80.7802 74.6754 80.7299 74.6842 80.6799 74.68H80.5499C80.4472 74.6839 80.3469 74.6481 80.2699 74.58C80.1833 74.5048 80.1178 74.4083 80.0799 74.3L75.6499 62.92H75.9999L71.5499 74.3C71.5224 74.4082 71.4632 74.5057 71.3799 74.58C71.2957 74.6494 71.1888 74.685 71.0799 74.68C71.0268 74.6868 70.9728 74.6793 70.9235 74.6582C70.8743 74.6371 70.8316 74.6032 70.7999 74.56C70.7751 74.5085 70.7622 74.4522 70.7622 74.395C70.7622 74.3379 70.7751 74.2815 70.7999 74.23L75.3699 62.49C75.3977 62.3897 75.4602 62.3025 75.5463 62.2439C75.6323 62.1853 75.7364 62.1591 75.8399 62.17H75.9099C76.0134 62.1591 76.1175 62.1853 76.2035 62.2439C76.2896 62.3025 76.3521 62.3897 76.3799 62.49L80.9699 74.23C80.9881 74.2841 80.9949 74.3413 80.9897 74.3982C80.9845 74.455 80.9676 74.5101 80.9399 74.56ZM78.9399 69.72V70.47H72.7699V69.72H78.9399Z" fill="#D1B276"/>
    <path d="M89.46 62.27C89.492 62.3068 89.5165 62.3496 89.532 62.396C89.5474 62.4423 89.5535 62.4912 89.55 62.54C89.5541 62.638 89.522 62.734 89.46 62.81C89.4239 62.8467 89.38 62.8749 89.3315 62.8922C89.283 62.9095 89.2312 62.9156 89.18 62.91H81C80.9502 62.9146 80.9001 62.9082 80.8531 62.8912C80.8061 62.8743 80.7634 62.8472 80.7281 62.8118C80.6928 62.7765 80.6657 62.7338 80.6487 62.6868C80.6317 62.6399 80.6253 62.5897 80.63 62.54C80.6251 62.4903 80.6316 62.4402 80.649 62.3935C80.6663 62.3467 80.694 62.3045 80.73 62.27C80.8049 62.2051 80.9008 62.1696 81 62.17H89.18C89.231 62.167 89.282 62.1743 89.3301 62.1915C89.3783 62.2086 89.4224 62.2353 89.46 62.27ZM85.4 74.57C85.3654 74.6092 85.3219 74.6396 85.2732 74.6587C85.2245 74.6779 85.172 74.6851 85.12 74.6799C85.0192 74.6799 84.9225 74.6399 84.8513 74.5687C84.78 74.4974 84.74 74.4008 84.74 74.3V62.51H85.54V74.3C85.5377 74.3525 85.524 74.4038 85.4999 74.4505C85.4757 74.4971 85.4416 74.5379 85.4 74.57Z" fill="#D1B276"/>
    <path d="M91.7501 74.52C91.6927 74.4587 91.6489 74.3862 91.6213 74.3069C91.5937 74.2277 91.5831 74.1436 91.5901 74.06V62.82C91.5829 62.7348 91.5934 62.6491 91.621 62.5683C91.6485 62.4874 91.6925 62.4131 91.7501 62.35C91.8156 62.293 91.8918 62.2496 91.9741 62.2222C92.0565 62.1947 92.1435 62.1837 92.2301 62.19H92.3901V74.7H92.2301C92.1418 74.7059 92.0534 74.6929 91.9706 74.6619C91.8878 74.6308 91.8126 74.5825 91.7501 74.52ZM98.6601 62.26C98.6939 62.2977 98.7195 62.3421 98.735 62.3904C98.7505 62.4386 98.7556 62.4896 98.7501 62.54C98.7544 62.5903 98.7487 62.6409 98.7333 62.689C98.7178 62.7371 98.6929 62.7816 98.6601 62.82C98.6242 62.8536 98.5815 62.879 98.5349 62.8946C98.4883 62.9101 98.4389 62.9154 98.3901 62.91H92.2801V62.15H98.3901C98.4404 62.1471 98.4908 62.1555 98.5375 62.1745C98.5842 62.1936 98.626 62.2228 98.6601 62.26ZM98.1101 68.13C98.1678 68.2077 98.1961 68.3033 98.1901 68.4C98.1946 68.4933 98.1663 68.5853 98.1101 68.66C98.0769 68.6915 98.0376 68.7158 97.9945 68.7312C97.9515 68.7467 97.9057 68.7531 97.8601 68.75H92.2801V68.01H97.8601C97.9558 68.016 98.0454 68.0591 98.1101 68.13ZM98.6601 74.01C98.6937 74.0498 98.719 74.096 98.7345 74.1458C98.7499 74.1956 98.7552 74.2481 98.7501 74.3C98.7544 74.3503 98.7487 74.4009 98.7333 74.449C98.7178 74.4971 98.6929 74.5416 98.6601 74.58C98.6242 74.6136 98.5815 74.6391 98.5349 74.6546C98.4883 74.6701 98.4389 74.6754 98.3901 74.67H92.2801V73.92H98.3901C98.4389 73.9146 98.4883 73.9198 98.5349 73.9354C98.5815 73.9509 98.6242 73.9763 98.6601 74.01Z" fill="#D1B276"/>
    <path d="M102.24 74.5699C102.205 74.6092 102.162 74.6396 102.113 74.6587C102.064 74.6778 102.012 74.6851 101.96 74.6799C101.859 74.6799 101.762 74.6399 101.691 74.5686C101.62 74.4974 101.58 74.4007 101.58 74.3V62.8199C101.573 62.7348 101.583 62.6491 101.611 62.5682C101.638 62.4874 101.682 62.413 101.74 62.3499C101.805 62.293 101.882 62.2496 101.964 62.2221C102.046 62.1947 102.133 62.1837 102.22 62.1899H102.38V74.3199C102.375 74.369 102.36 74.4165 102.336 74.4595C102.312 74.5025 102.279 74.5401 102.24 74.5699ZM102.24 68.4399H105.45C105.971 68.4422 106.484 68.3114 106.94 68.0599C107.376 67.824 107.745 67.4796 108.01 67.0599C108.271 66.6506 108.409 66.1753 108.409 65.6899C108.409 65.2046 108.271 64.7293 108.01 64.3199C107.743 63.9017 107.375 63.5577 106.94 63.3199C106.484 63.0685 105.971 62.9377 105.45 62.9399H102.24V62.1799H105.45C106.105 62.1798 106.749 62.3486 107.32 62.67C107.876 62.9842 108.347 63.4306 108.69 63.9699C109.029 64.4777 109.209 65.0745 109.209 65.6849C109.209 66.2954 109.029 66.8921 108.69 67.3999C108.348 67.9424 107.877 68.3923 107.32 68.71C106.752 69.0387 106.106 69.2112 105.45 69.21H102.24V68.4399ZM106.16 68.7599L109.27 74.1799C109.308 74.2305 109.334 74.2898 109.345 74.3525C109.355 74.4153 109.35 74.4796 109.33 74.5399C109.33 74.6399 109.19 74.6799 109.03 74.6799H108.95C108.844 74.6858 108.739 74.6578 108.65 74.5999C108.562 74.533 108.491 74.4477 108.44 74.3499L105.28 68.7599H106.16Z" fill="#D1B276"/>
    <path d="M114.34 74C113.394 73.4295 112.62 72.6141 112.1 71.6401C111.558 70.6433 111.279 69.5247 111.29 68.3901C111.281 67.2748 111.56 66.1761 112.1 65.2001C112.621 64.2315 113.395 63.4227 114.34 62.8601C115.292 62.2824 116.386 61.9812 117.5 61.9901C118.422 61.9805 119.334 62.1895 120.16 62.6001C120.967 62.9977 121.675 63.5719 122.23 64.28C122.298 64.3499 122.337 64.4427 122.34 64.5401C122.329 64.5906 122.307 64.6383 122.276 64.6797C122.245 64.7211 122.206 64.7553 122.16 64.78C122.128 64.8154 122.087 64.8422 122.041 64.8579C121.996 64.8736 121.947 64.8777 121.9 64.87C121.805 64.8493 121.718 64.8006 121.65 64.7301C121.17 64.1045 120.554 63.5952 119.85 63.2401C119.132 62.8762 118.335 62.6942 117.53 62.7101C116.555 62.6985 115.596 62.9582 114.76 63.4601C113.921 63.9513 113.23 64.6595 112.76 65.5101C112.288 66.3814 112.047 67.3591 112.06 68.3501C112.047 69.3632 112.288 70.3635 112.76 71.2601C113.221 72.1199 113.914 72.8334 114.76 73.3201C115.603 73.8236 116.569 74.0832 117.55 74.0701V74.8301C116.423 74.8604 115.311 74.5727 114.34 74ZM121.87 72C121.963 71.9955 122.055 72.0238 122.13 72.0801C122.173 72.1059 122.209 72.1408 122.237 72.1822C122.264 72.2237 122.283 72.2708 122.29 72.3201C122.299 72.3694 122.293 72.4202 122.273 72.4663C122.254 72.5124 122.221 72.5519 122.18 72.5801C121.628 73.2801 120.924 73.8445 120.12 74.2301C119.29 74.6396 118.376 74.8486 117.45 74.84C116.336 74.8489 115.242 74.5477 114.29 73.97C113.344 73.3995 112.57 72.5841 112.05 71.6101C111.508 70.6133 111.229 69.4947 111.24 68.3601C111.231 67.2448 111.51 66.1461 112.05 65.1701C112.578 64.1939 113.361 63.3796 114.315 62.8142C115.27 62.2487 116.36 61.9535 117.47 61.9601V62.72C116.501 62.7102 115.548 62.9648 114.712 63.4564C113.877 63.948 113.192 64.658 112.73 65.5101C112.259 66.3855 112.018 67.3661 112.03 68.3601C112.018 69.3688 112.255 70.365 112.72 71.2601C113.167 72.1107 113.838 72.8231 114.66 73.3201C115.5 73.8311 116.467 74.0945 117.45 74.0801C118.249 74.087 119.039 73.9126 119.76 73.5701C120.466 73.2263 121.085 72.7271 121.57 72.1101C121.609 72.0703 121.656 72.0391 121.707 72.0184C121.759 71.9978 121.814 71.9881 121.87 71.9901V72Z" fill="#D1B276"/>
    <path d="M125.47 74.5699C125.435 74.6085 125.391 74.6385 125.343 74.6576C125.294 74.6767 125.242 74.6843 125.19 74.6799C125.138 74.6822 125.086 74.6736 125.038 74.6547C124.99 74.6357 124.946 74.6069 124.91 74.5699C124.875 74.5342 124.849 74.4918 124.832 74.4454C124.814 74.3989 124.807 74.3494 124.81 74.3V62.5599C124.806 62.5088 124.812 62.4574 124.83 62.4091C124.847 62.3609 124.874 62.3168 124.91 62.2799C124.986 62.2091 125.086 62.1698 125.19 62.1699C125.242 62.1683 125.293 62.1771 125.341 62.196C125.389 62.215 125.433 62.2435 125.47 62.2799C125.505 62.3168 125.533 62.3609 125.55 62.4091C125.567 62.4574 125.574 62.5088 125.57 62.5599V74.3C125.573 74.3494 125.565 74.3989 125.548 74.4454C125.531 74.4918 125.504 74.5342 125.47 74.5699ZM133.27 68.49H125.19V67.71H133.27V68.49ZM133.54 74.5699C133.503 74.6093 133.458 74.6397 133.408 74.6588C133.357 74.6779 133.303 74.6851 133.25 74.6799C133.198 74.6829 133.146 74.6746 133.098 74.6556C133.049 74.6366 133.006 74.6074 132.97 74.5699C132.934 74.5347 132.906 74.4926 132.887 74.4462C132.868 74.3998 132.859 74.3501 132.86 74.3V62.5599C132.857 62.5081 132.865 62.4562 132.884 62.4079C132.903 62.3596 132.932 62.3159 132.97 62.2799C133.007 62.244 133.051 62.2157 133.099 62.1969C133.147 62.178 133.198 62.1688 133.25 62.1699C133.303 62.1669 133.357 62.175 133.407 62.194C133.457 62.213 133.502 62.2422 133.54 62.2799C133.575 62.3168 133.603 62.3609 133.62 62.4091C133.637 62.4574 133.644 62.5088 133.64 62.5599V74.3C133.644 74.3487 133.638 74.3978 133.623 74.4442C133.607 74.4906 133.582 74.5334 133.55 74.5699H133.54Z" fill="#D1B276"/>
    <path d="M137.55 74.57C137.515 74.6086 137.471 74.6386 137.423 74.6576C137.374 74.6767 137.322 74.6844 137.27 74.68C137.169 74.68 137.072 74.6399 137.001 74.5687C136.93 74.4974 136.89 74.4008 136.89 74.3V62.56C136.885 62.5079 136.892 62.4554 136.911 62.4067C136.93 62.358 136.961 62.3146 137 62.28C137.035 62.2443 137.077 62.2162 137.124 62.1973C137.17 62.1784 137.22 62.1691 137.27 62.17C137.322 62.1683 137.373 62.1772 137.421 62.1961C137.469 62.215 137.513 62.2436 137.55 62.28C137.585 62.3168 137.613 62.3609 137.63 62.4092C137.647 62.4575 137.654 62.5089 137.65 62.56V74.3C137.653 74.3495 137.645 74.399 137.628 74.4454C137.611 74.4919 137.584 74.5343 137.55 74.57Z" fill="#D1B276"/>
    <path d="M148.99 62.2799C149.066 62.2091 149.166 62.1698 149.27 62.1699C149.322 62.167 149.374 62.1753 149.422 62.1943C149.47 62.2133 149.514 62.2425 149.55 62.2799C149.586 62.3168 149.613 62.3609 149.63 62.4091C149.647 62.4574 149.654 62.5088 149.65 62.5599V74.2799C149.655 74.3842 149.623 74.487 149.56 74.5699C149.529 74.6082 149.489 74.6383 149.444 74.6574C149.398 74.6766 149.349 74.6843 149.3 74.6799H149.23C149.133 74.6824 149.037 74.6619 148.95 74.6199C148.867 74.568 148.798 74.4957 148.75 74.4099L141.59 63.6399V74.3C141.593 74.3518 141.585 74.4037 141.566 74.452C141.547 74.5003 141.517 74.544 141.48 74.58C141.443 74.6156 141.399 74.643 141.351 74.6602C141.302 74.6775 141.251 74.6842 141.2 74.6799C141.149 74.6835 141.098 74.6765 141.049 74.6593C141.001 74.6421 140.957 74.6151 140.92 74.58C140.882 74.544 140.853 74.5003 140.834 74.452C140.815 74.4037 140.807 74.3518 140.81 74.3V62.58C140.803 62.4707 140.839 62.3631 140.91 62.2799C140.948 62.2422 140.993 62.213 141.043 62.194C141.093 62.175 141.147 62.1669 141.2 62.1699C141.298 62.1693 141.394 62.1934 141.48 62.24C141.567 62.2898 141.642 62.3581 141.7 62.4399L148.86 73.2199V62.5599C148.859 62.5065 148.871 62.4537 148.893 62.4053C148.916 62.3569 148.949 62.314 148.99 62.2799Z" fill="#D1B276"/>
    <path d="M161.98 74.56C161.952 74.6016 161.912 74.6346 161.867 74.6558C161.821 74.6769 161.77 74.6852 161.72 74.68H161.64C161.534 74.6834 161.431 74.6479 161.35 74.58C161.267 74.5039 161.205 74.4074 161.17 74.3L156.73 62.92H157.09L152.63 74.3C152.606 74.4098 152.547 74.5084 152.46 74.58C152.376 74.6494 152.269 74.685 152.16 74.68H152.11C152.057 74.6858 152.003 74.6778 151.954 74.6568C151.905 74.6357 151.862 74.6024 151.83 74.56C151.807 74.508 151.795 74.4518 151.795 74.395C151.795 74.3382 151.807 74.282 151.83 74.23L156.41 62.49C156.438 62.3897 156.5 62.3025 156.586 62.2439C156.673 62.1853 156.777 62.1591 156.88 62.17H156.94C157.044 62.1591 157.148 62.1853 157.234 62.2439C157.32 62.3025 157.382 62.3897 157.41 62.49L162 74.23C162.022 74.283 162.031 74.3402 162.028 74.3973C162.024 74.4545 162.008 74.5101 161.98 74.56ZM159.98 69.72V70.47H153.81V69.72H159.98Z" fill="#D1B276"/>
    <path d="M171.34 61.5201V63.6401C171.34 68.8801 168.98 73.0434 164.26 76.13C164.224 76.1628 164.181 76.1865 164.134 76.1994C164.087 76.2123 164.037 76.214 163.99 76.2043C163.942 76.1945 163.897 76.1737 163.859 76.1434C163.821 76.1131 163.79 76.0743 163.77 76.03C163.74 75.991 163.719 75.9457 163.708 75.8975C163.698 75.8492 163.699 75.7993 163.71 75.7513C163.722 75.7033 163.744 75.6586 163.775 75.6203C163.806 75.582 163.845 75.5511 163.89 75.53C165.943 74.24 167.657 72.4776 168.89 70.3901C170.022 68.3414 170.595 66.0304 170.55 63.69V61.5201C170.55 61.2901 170.67 61.18 170.91 61.18H170.98C171.027 61.172 171.076 61.1751 171.122 61.189C171.168 61.2029 171.21 61.2273 171.245 61.2603C171.28 61.2933 171.306 61.3339 171.323 61.3789C171.34 61.424 171.345 61.4723 171.34 61.5201ZM178.53 65.47V65.54C178.536 65.5879 178.532 65.6367 178.516 65.6825C178.501 65.7284 178.476 65.7701 178.442 65.8048C178.408 65.8394 178.367 65.866 178.322 65.8825C178.277 65.899 178.228 65.905 178.18 65.9H164.13C164.081 65.9066 164.031 65.9019 163.985 65.8861C163.938 65.8704 163.896 65.8441 163.861 65.8092C163.826 65.7744 163.8 65.7319 163.784 65.6852C163.768 65.6386 163.763 65.5889 163.77 65.54V65.47C163.765 65.422 163.771 65.3734 163.788 65.328C163.804 65.2826 163.831 65.2416 163.865 65.2079C163.9 65.1742 163.942 65.1488 163.988 65.1336C164.033 65.1184 164.082 65.1137 164.13 65.12H178.18C178.229 65.1098 178.28 65.1115 178.328 65.1252C178.376 65.1388 178.42 65.1639 178.457 65.1982C178.493 65.2326 178.52 65.2753 178.537 65.3227C178.553 65.37 178.558 65.4206 178.55 65.47H178.53ZM171.89 65.78C172.155 67.717 172.859 69.5677 173.95 71.19C175.152 72.906 176.681 74.3674 178.45 75.4901C178.494 75.51 178.534 75.5398 178.565 75.5772C178.596 75.6145 178.618 75.6585 178.63 75.7058C178.641 75.753 178.642 75.8022 178.631 75.8498C178.621 75.8973 178.6 75.9419 178.57 75.98C178.55 76.0244 178.52 76.0636 178.483 76.0947C178.445 76.1258 178.402 76.148 178.354 76.1596C178.307 76.1712 178.258 76.1718 178.21 76.1615C178.163 76.1512 178.118 76.1302 178.08 76.1C176.184 74.8972 174.548 73.3262 173.27 71.48C172.125 69.778 171.401 67.8274 171.16 65.79C171.16 65.58 171.23 65.4601 171.46 65.4201H171.53C171.582 65.4162 171.634 65.4242 171.682 65.4435C171.73 65.4629 171.773 65.493 171.808 65.5317C171.843 65.5703 171.868 65.6164 171.883 65.6664C171.897 65.7164 171.899 65.7689 171.89 65.82V65.78Z" fill="#D1B276"/>
    <path d="M181.62 63.97C181.687 63.9056 181.768 63.8564 181.856 63.8253C181.943 63.7943 182.037 63.7823 182.13 63.79H194.63C194.724 63.7833 194.819 63.7958 194.908 63.8267C194.998 63.8577 195.08 63.9064 195.15 63.97C195.269 64.1121 195.33 64.2945 195.32 64.48V70.88C195.33 71.0654 195.269 71.2478 195.15 71.39C195.08 71.4536 194.998 71.5023 194.908 71.5332C194.819 71.5641 194.724 71.5767 194.63 71.57H182.13C182.037 71.5777 181.943 71.5656 181.856 71.5346C181.768 71.5036 181.687 71.4543 181.62 71.39C181.557 71.3215 181.509 71.241 181.478 71.1533C181.447 71.0657 181.434 70.9727 181.44 70.88V64.48C181.434 64.3872 181.447 64.2942 181.478 64.2066C181.509 64.119 181.557 64.0385 181.62 63.97ZM194.55 64.55H182.21V70.82H194.55V64.55ZM188.77 61.42V76.03C188.778 76.0795 188.775 76.1304 188.76 76.1784C188.745 76.2264 188.719 76.2702 188.684 76.3062C188.649 76.3423 188.606 76.3695 188.558 76.3858C188.51 76.4021 188.46 76.4069 188.41 76.4H188.35C188.3 76.4069 188.249 76.4021 188.202 76.3858C188.154 76.3695 188.111 76.3423 188.076 76.3062C188.041 76.2702 188.015 76.2264 188 76.1784C187.985 76.1304 187.982 76.0795 187.99 76.03V61.42C187.982 61.3704 187.985 61.3195 188 61.2715C188.015 61.2235 188.041 61.1798 188.076 61.1437C188.111 61.1077 188.154 61.0804 188.202 61.0641C188.249 61.0478 188.3 61.043 188.35 61.05H188.41C188.46 61.043 188.51 61.0478 188.558 61.0641C188.606 61.0804 188.649 61.1077 188.684 61.1437C188.719 61.1798 188.745 61.2235 188.76 61.2715C188.775 61.3195 188.778 61.3704 188.77 61.42Z" fill="#D1B276"/>
    <path d="M202.97 61.49C202.98 61.5886 202.955 61.6875 202.9 61.77C202.298 62.6847 201.63 63.5537 200.9 64.37C200.158 65.2103 199.356 65.9957 198.5 66.72C198.47 66.7543 198.433 66.7819 198.392 66.8009C198.35 66.8198 198.305 66.8298 198.26 66.83C198.168 66.8148 198.086 66.7646 198.03 66.69V66.62C197.996 66.5901 197.968 66.5532 197.949 66.5118C197.93 66.4705 197.92 66.4255 197.92 66.38C197.946 66.2902 198.003 66.2124 198.08 66.16C198.921 65.4268 199.713 64.6384 200.45 63.8C201.129 63.0369 201.751 62.2246 202.31 61.37C202.327 61.3283 202.353 61.2907 202.386 61.2597C202.418 61.2287 202.457 61.2049 202.5 61.19C202.545 61.1813 202.591 61.1822 202.636 61.1925C202.681 61.2029 202.723 61.2224 202.76 61.25H202.83C202.87 61.2763 202.904 61.3118 202.928 61.3534C202.953 61.3951 202.967 61.4419 202.97 61.49ZM213.05 72.55C213.057 72.5975 213.052 72.6459 213.037 72.6914C213.022 72.7369 212.996 72.7782 212.962 72.8122C212.928 72.8461 212.887 72.8717 212.841 72.8869C212.796 72.9022 212.747 72.9066 212.7 72.9H198.55C198.502 72.9063 198.453 72.9016 198.407 72.8864C198.362 72.8712 198.32 72.8458 198.285 72.8121C198.251 72.7785 198.224 72.7374 198.207 72.692C198.191 72.6466 198.185 72.598 198.19 72.55C198.183 72.5012 198.188 72.4514 198.204 72.4048C198.22 72.3581 198.246 72.3157 198.281 72.2808C198.316 72.246 198.358 72.2197 198.405 72.2039C198.451 72.1881 198.501 72.1834 198.55 72.19H212.73C212.94 72.19 213.05 72.31 213.05 72.55ZM201.14 64.68V69.48C201.14 69.72 201.03 69.84 200.8 69.84H200.73C200.51 69.84 200.4 69.72 200.4 69.48V64.68C200.4 64.45 200.51 64.33 200.73 64.33H200.8C200.847 64.325 200.894 64.3307 200.938 64.3467C200.982 64.3627 201.022 64.3885 201.055 64.4222C201.088 64.456 201.113 64.4967 201.127 64.5413C201.142 64.586 201.146 64.6334 201.14 64.68ZM212.63 62.95V63.02C212.66 63.0559 212.681 63.0988 212.69 63.1448C212.699 63.1908 212.697 63.2384 212.683 63.2832C212.669 63.328 212.644 63.3686 212.61 63.4013C212.577 63.4339 212.535 63.4575 212.49 63.47C211.049 64.2771 209.563 65.0017 208.04 65.64C206.574 66.2576 205.071 66.782 203.54 67.21C203.496 67.2271 203.449 67.2339 203.402 67.23C203.355 67.2261 203.309 67.2116 203.269 67.1875C203.228 67.1634 203.194 67.1304 203.168 67.0909C203.142 67.0515 203.126 67.0067 203.12 66.96V66.89C203.089 66.8027 203.089 66.7073 203.12 66.62C203.145 66.5815 203.177 66.5483 203.215 66.5226C203.252 66.4968 203.295 66.4789 203.34 66.47C206.404 65.6281 209.35 64.4052 212.11 62.83C212.38 62.72 212.55 62.76 212.63 62.95ZM206 70.59V76.03C206 76.27 205.88 76.38 205.64 76.38H205.55C205.31 76.38 205.19 76.27 205.19 76.03V70.59C205.185 70.5419 205.191 70.4934 205.207 70.448C205.224 70.4026 205.251 70.3615 205.285 70.3278C205.32 70.2942 205.362 70.2688 205.407 70.2535C205.453 70.2383 205.502 70.2337 205.55 70.24H205.61C205.66 70.2284 205.712 70.229 205.762 70.2418C205.812 70.2546 205.858 70.2792 205.896 70.3135C205.934 70.3479 205.964 70.3909 205.982 70.4391C206 70.4872 206.006 70.5389 206 70.59ZM207 61.53V68.59H212.23V67.41C212.23 67.17 212.34 67.06 212.57 67.06H212.63C212.86 67.06 212.97 67.17 212.97 67.41V68.66C212.98 68.8394 212.919 69.0155 212.8 69.15C212.737 69.2125 212.662 69.2609 212.579 69.2919C212.497 69.323 212.408 69.3359 212.32 69.33H206.92C206.744 69.3366 206.572 69.2758 206.44 69.16C206.376 69.094 206.328 69.0154 206.297 68.9292C206.265 68.843 206.253 68.7513 206.26 68.66V61.53C206.255 61.4845 206.26 61.4386 206.276 61.3955C206.291 61.3525 206.316 61.3136 206.349 61.2818C206.382 61.2499 206.422 61.226 206.465 61.2119C206.509 61.1977 206.555 61.1936 206.6 61.2H206.67C206.715 61.1932 206.761 61.1971 206.804 61.2113C206.847 61.2255 206.886 61.2496 206.918 61.2817C206.95 61.3138 206.974 61.353 206.989 61.3961C207.003 61.4392 207.007 61.4851 207 61.53Z" fill="#D1B276"/>
    <path d="M179.4 165.1H180.87V166.57H179.4V165.1Z" fill="#D1B276"/>
    <text style="fill: rgb(209, 178, 118); font-family: Arial, sans-serif; font-size: 28px; white-space: pre;" x="33.59" y="127.488"></text>
    <text style="fill: rgb(209, 178, 118); font-family: Arial, sans-serif; font-size: 28px; white-space: pre;" x="14.886" y="87.028" dx="18.512" dy="11.833">SCENICSPOT</text>
  </g>
</svg>